<svg width="34" height="36" viewBox="0 0 34 36" fill="none" xmlns="http://www.w3.org/2000/svg">
<g filter="url(#filter0_d_1459_1530)">
<path fill-rule="evenodd" clip-rule="evenodd" d="M7 12.4492C7.55228 12.4492 8 12.8969 8 13.4492V25.9992H26V13.4492C26 12.8969 26.4477 12.4492 27 12.4492C27.5523 12.4492 28 12.8969 28 13.4492V25.9992C28 26.5296 27.7893 27.0384 27.4142 27.4134C27.0391 27.7885 26.5304 27.9992 26 27.9992H8C7.46957 27.9992 6.96086 27.7885 6.58579 27.4134C6.21071 27.0384 6 26.5297 6 25.9992V13.4492C6 12.8969 6.44772 12.4492 7 12.4492Z" fill="#A259FF"/>
<path fill-rule="evenodd" clip-rule="evenodd" d="M4 5C4 4.44772 4.44772 4 5 4H29C29.5523 4 30 4.44772 30 5C30 5.55228 29.5523 6 29 6H5C4.44772 6 4 5.55228 4 5Z" fill="#A259FF"/>
<path fill-rule="evenodd" clip-rule="evenodd" d="M5 7C5.55228 7 6 7.44772 6 8V10C6 10.7956 6.31607 11.5587 6.87868 12.1213C7.44129 12.6839 8.20435 13 9 13C9.79565 13 10.5587 12.6839 11.1213 12.1213C11.6839 11.5587 12 10.7956 12 10V8C12 7.44772 12.4477 7 13 7C13.5523 7 14 7.44772 14 8V10C14 11.3261 13.4732 12.5979 12.5355 13.5355C11.5979 14.4732 10.3261 15 9 15C7.67392 15 6.40215 14.4732 5.46447 13.5355C4.52678 12.5979 4 11.3261 4 10V8C4 7.44772 4.44772 7 5 7Z" fill="#A259FF"/>
<path fill-rule="evenodd" clip-rule="evenodd" d="M13 7C13.5523 7 14 7.44772 14 8V10C14 10.7956 14.3161 11.5587 14.8787 12.1213C15.4413 12.6839 16.2044 13 17 13C17.7956 13 18.5587 12.6839 19.1213 12.1213C19.6839 11.5587 20 10.7956 20 10V8C20 7.44772 20.4477 7 21 7C21.5523 7 22 7.44772 22 8V10C22 11.3261 21.4732 12.5979 20.5355 13.5355C19.5979 14.4732 18.3261 15 17 15C15.6739 15 14.4021 14.4732 13.4645 13.5355C12.5268 12.5979 12 11.3261 12 10V8C12 7.44772 12.4477 7 13 7Z" fill="#A259FF"/>
<path fill-rule="evenodd" clip-rule="evenodd" d="M21 7C21.5523 7 22 7.44772 22 8V10C22 10.7956 22.3161 11.5587 22.8787 12.1213C23.4413 12.6839 24.2044 13 25 13C25.7956 13 26.5587 12.6839 27.1213 12.1213C27.6839 11.5587 28 10.7956 28 10V8C28 7.44772 28.4477 7 29 7C29.5523 7 30 7.44772 30 8V10C30 11.3261 29.4732 12.5979 28.5355 13.5355C27.5979 14.4732 26.3261 15 25 15C23.6739 15 22.4021 14.4732 21.4645 13.5355C20.5268 12.5979 20 11.3261 20 10V8C20 7.44772 20.4477 7 21 7Z" fill="#A259FF"/>
</g>
<defs>
<filter id="filter0_d_1459_1530" x="-3" y="0" width="40" height="40" filterUnits="userSpaceOnUse" color-interpolation-filters="sRGB">
<feFlood flood-opacity="0" result="BackgroundImageFix"/>
<feColorMatrix in="SourceAlpha" type="matrix" values="0 0 0 0 0 0 0 0 0 0 0 0 0 0 0 0 0 0 127 0" result="hardAlpha"/>
<feOffset dy="4"/>
<feGaussianBlur stdDeviation="2"/>
<feComposite in2="hardAlpha" operator="out"/>
<feColorMatrix type="matrix" values="0 0 0 0 0 0 0 0 0 0 0 0 0 0 0 0 0 0 0.25 0"/>
<feBlend mode="normal" in2="BackgroundImageFix" result="effect1_dropShadow_1459_1530"/>
<feBlend mode="normal" in="SourceGraphic" in2="effect1_dropShadow_1459_1530" result="shape"/>
</filter>
</defs>
</svg>
