<svg width="590" height="443" viewBox="0 0 590 443" fill="none" xmlns="http://www.w3.org/2000/svg">
<path d="M493.152 52.9459H188.35V358.092H493.152V52.9459Z" fill="url(#paint0_radial_2_0)"/>
<path d="M510.357 134.517C512.683 134.517 514.568 132.629 514.568 130.301C514.568 127.973 512.683 126.085 510.357 126.085C508.032 126.085 506.146 127.973 506.146 130.301C506.146 132.629 508.032 134.517 510.357 134.517Z" fill="#B3EFFF"/>
<path d="M132.3 104.171C134.626 104.171 136.511 102.284 136.511 99.9556C136.511 97.6272 134.626 95.7397 132.3 95.7397C129.974 95.7397 128.089 97.6272 128.089 99.9556C128.089 102.284 129.974 104.171 132.3 104.171Z" fill="#B3EFFF"/>
<mask id="mask0_2_0" style="mask-type:alpha" maskUnits="userSpaceOnUse" x="393" y="35" width="75" height="75">
<path d="M404.74 98.1245C419.136 112.603 442.515 112.662 456.977 98.2574C471.439 83.8525 471.498 60.44 457.11 45.9612C442.721 31.4825 419.335 31.4235 404.873 45.8283C390.418 60.2332 390.359 83.6458 404.74 98.1245Z" fill="url(#paint1_linear_2_0)"/>
</mask>
<g mask="url(#mask0_2_0)">
<path d="M404.74 98.1245C419.136 112.603 442.515 112.662 456.977 98.2574C471.439 83.8525 471.498 60.44 457.11 45.9612C442.721 31.4825 419.335 31.4235 404.873 45.8283C390.418 60.2332 390.359 83.6458 404.74 98.1245Z" fill="url(#paint2_linear_2_0)"/>
</g>
<path d="M230.425 270.946L469.138 150.642L257.845 326.816" fill="url(#paint3_linear_2_0)"/>
<path d="M360.114 221.832L469.138 150.642L337.657 217.166L360.114 221.832Z" fill="url(#paint4_linear_2_0)"/>
<path d="M135.257 398.641C124.165 406.895 97.9179 414.463 97.9179 414.463C97.9179 414.463 100.02 413.26 103.471 411.554C106.923 409.841 109.784 406.224 109.784 406.224C109.784 406.224 102.734 410.528 92.9324 413.843C83.1384 417.158 70.033 419.565 70.033 419.565C70.033 419.565 72.6954 418.273 77.3637 415.217C82.0395 412.16 90.0709 406.836 90.0709 406.836C90.0709 406.836 70.0256 417.83 39.3825 419.942C27.3908 420.769 7.78062 425.066 7.78062 425.066C7.78062 425.066 17.2575 416.885 21.7636 412.167C28.9247 404.68 37.2511 392.638 43.778 385.033C53.4983 373.707 73.455 353.787 73.455 353.787C73.455 353.787 73.455 353.787 69.443 355.589C65.431 357.39 60.5782 359.325 60.5782 359.325C60.5782 359.325 80.6456 340.172 95.58 334.399C112.41 327.894 134.867 330.862 134.867 330.862C134.867 330.862 136.843 340.475 144.189 352.923C151.785 365.785 158.031 371.027 158.031 371.027C158.031 371.027 152.249 386.001 135.257 398.641Z" fill="url(#paint5_linear_2_0)"/>
<path d="M137.935 387.522C129.601 393.724 109.873 399.416 109.873 399.416C109.873 399.416 111.451 398.515 114.047 397.231C116.643 395.946 118.789 393.222 118.789 393.222C118.789 393.222 113.486 396.455 106.126 398.944C98.766 401.432 88.9204 403.248 88.9204 403.248C88.9204 403.248 90.919 402.274 94.4295 399.977C97.94 397.681 103.98 393.679 103.98 393.679C103.98 393.679 88.913 401.941 65.8809 403.529C56.8686 404.149 42.1334 407.375 42.1334 407.375C42.1334 407.375 49.2576 401.225 52.6427 397.681C58.0265 392.055 64.2805 383.01 69.1922 377.288C76.5009 368.775 91.4942 353.809 91.4942 353.809C91.4942 353.809 91.4942 353.809 88.4779 355.16C85.4615 356.512 81.8109 357.966 81.8109 357.966C81.8109 357.966 96.8927 343.576 108.118 339.235C120.766 334.347 137.647 336.577 137.647 336.577C137.647 336.577 139.129 343.805 144.653 353.152C150.361 362.824 155.059 366.752 155.059 366.752C155.059 366.752 150.701 378.019 137.935 387.522Z" fill="url(#paint6_linear_2_0)"/>
<path d="M150.561 309.214C151.829 307.302 187.214 269.337 230.225 247.061C273.236 224.786 292.729 222.881 292.729 222.881C292.729 222.881 303.533 230.515 314.337 250.457C325.142 270.4 328.32 278.455 327.472 281.002C326.624 283.55 284.675 328.942 238.692 347.821C192.716 366.701 187.421 367.764 187.421 367.764C187.421 367.764 181.698 367.129 175.134 357.161C168.57 347.194 153.312 322.371 151.615 316.856C149.919 311.34 150.561 309.214 150.561 309.214Z" fill="url(#paint7_linear_2_0)"/>
<path d="M362.223 220.548C359.679 216.944 356.294 216.302 335.74 216.516C315.185 216.73 293.791 223.516 293.791 223.516L294.034 223.914C297.22 226.58 305.775 234.65 314.345 250.457C322.479 265.468 326.285 273.744 327.317 278.005L328.121 279.304C328.121 279.304 328.121 279.304 331.72 275.908C335.319 272.511 350.15 250.664 355.659 240.483C361.169 230.308 364.768 224.151 362.223 220.548Z" fill="url(#paint8_linear_2_0)"/>
<path d="M189.125 367.121L165.606 416.76C165.606 416.76 188.697 407.213 215.608 389.397C242.52 371.581 244.636 368.82 244.636 368.82L251.842 341.671C251.834 341.671 208.617 361.606 189.125 367.121Z" fill="url(#paint9_linear_2_0)"/>
<path d="M203.314 263.607L178.527 258.52C178.527 258.52 156.704 267.638 138.48 279.518C120.257 291.398 102.461 304.762 102.461 304.762L152.249 307.309C152.257 307.302 187.428 271.242 203.314 263.607Z" fill="url(#paint10_linear_2_0)"/>
<path d="M175.134 357.154C168.563 347.187 153.312 322.364 151.615 316.848C151.151 315.35 150.87 314.109 150.693 313.083L137.846 322.57C137.846 322.57 136.998 331.903 148.437 349.298C159.875 366.693 165.812 372.629 168.563 372.415C171.314 372.201 183.18 366.051 183.18 366.051L182.937 365.652C180.791 364.153 178.047 361.569 175.134 357.154Z" fill="url(#paint11_linear_2_0)"/>
<path d="M138.694 328.093L134.881 330.847C134.881 330.847 134.461 336.783 143.141 351.21C151.829 365.637 157.124 370.939 159.455 371.153C161.785 371.367 163.482 369.241 163.482 369.241C163.482 369.241 143.141 346.544 138.694 328.093Z" fill="url(#paint12_linear_2_0)"/>
<path d="M218.787 296.699L199.715 303.278C199.715 303.278 170.149 319.698 160.517 325.553C148.437 332.892 113.059 356.312 113.059 356.312L114.541 359.495L202.259 307.102L221.538 299.675L218.787 296.699Z" fill="url(#paint13_linear_2_0)"/>
<path d="M114.541 359.487L162.847 337.212C162.847 337.212 181.403 326.594 187.428 322.785C196.138 317.284 221.538 299.667 221.538 299.667L201.411 307.302L114.541 359.487Z" fill="url(#paint14_linear_2_0)"/>
<path d="M305.657 117.033L310.318 115.121C310.318 115.121 311.491 115.66 312.648 118.303C314.131 121.699 314.345 124.033 314.345 124.033L309.684 126.58C309.676 126.58 307.346 120.215 305.657 117.033Z" fill="black"/>
<path d="M262.852 159.037L310.524 130.19C310.524 130.19 311.092 125.664 309.396 121.707C307.7 117.749 305.723 116.612 305.723 116.612L244.422 144.403" fill="url(#paint15_linear_2_0)"/>
<path d="M241.31 144.256C241.31 144.256 232.128 154.363 230.012 165.394C227.895 176.425 228.101 194.876 227.467 201.033C226.833 207.184 223.654 218.643 221.744 223.944C219.834 229.245 219.2 236.673 219.2 236.673C219.2 236.673 232.549 238.157 247.38 236.459C262.211 234.76 267.506 232.856 267.506 232.856C267.506 232.856 266.658 215.46 265.102 209.805C263.546 204.149 263.125 202.17 263.125 202.17C263.125 202.17 263.693 200.051 265.102 196.234C266.518 192.417 273.576 178.839 272.447 173.612C271.319 168.377 268.494 160.743 266.09 158.195C263.686 155.648 262.698 155.227 262.698 155.227C262.698 155.227 257.188 147.305 253.376 143.628C249.563 139.951 244.902 140.372 244.902 140.372L241.31 144.256Z" fill="url(#paint16_linear_2_0)"/>
<path opacity="0.5" d="M244.85 177.997C244.85 177.997 247.321 185.211 251.421 190.017C255.514 194.824 263.922 199.778 263.922 199.778L265.117 196.234L245.418 178.005" fill="url(#paint17_linear_2_0)"/>
<path d="M260.728 152.458C258.781 149.815 255.758 145.902 253.39 143.621C249.577 139.944 244.916 140.365 244.916 140.365L241.362 144.204C243.913 145.769 250.212 146.928 254.238 149.276C256.687 150.701 258.921 151.735 260.728 152.458Z" fill="url(#paint18_linear_2_0)"/>
<path d="M243.788 208.107C243.788 208.107 248.309 207.966 254.806 206.408C261.304 204.851 262.432 203.861 262.432 203.861L261.016 209.657C261.016 209.657 257.764 211.916 253.103 212.345C248.442 212.766 243.353 212.913 243.353 212.913L243.788 208.107Z" fill="url(#paint19_linear_2_0)"/>
<path d="M223.448 236.953C223.448 236.953 224.716 243.739 229.097 246.286C233.478 248.833 237.711 250.812 237.711 250.812L257.771 266.088L225.992 278.957C225.992 278.957 230.085 288.57 233.478 293.384C236.87 298.191 239.267 300.457 239.267 300.029C239.267 299.601 259.327 290.268 270.058 286.171C280.796 282.073 286.157 279.666 288.141 275.568C290.118 271.47 285.884 266.804 283.901 263.127C281.924 259.45 268.502 240.505 266.105 237.817C263.708 235.13 261.724 234.281 261.724 234.281C261.724 234.281 239.688 238.511 223.448 236.953Z" fill="black"/>
<path d="M225.985 278.95L217.371 278.809L207.341 283.335L211.581 293.236L213.558 291.967C213.558 291.967 214.546 301.439 217.371 307.804C220.195 314.168 226.413 319.543 227.821 319.403C229.237 319.263 230.366 316.996 230.366 316.996C230.366 316.996 225.424 308.653 226.413 303.987C227.401 299.32 229.517 291.826 229.517 291.826L231.074 290.128C231.074 290.121 226.272 281.357 225.985 278.95Z" fill="url(#paint20_linear_2_0)"/>
<path d="M225.985 278.95L219.48 278.846C219.804 280.449 220.394 282.929 221.043 283.764C221.928 284.908 227.135 286.732 229.827 291.487L231.074 290.128C231.074 290.121 226.272 281.357 225.985 278.95Z" fill="white"/>
<path d="M227.821 319.396C228.205 319.359 228.566 319.159 228.89 318.901C226.184 317.122 223.337 313.799 220.616 310.203C216.663 304.969 216.375 294.226 215.815 291.959C215.343 290.076 212.429 283.594 211.463 281.467L207.341 283.328L211.581 293.229L213.558 291.959C213.558 291.959 214.546 301.432 217.371 307.796C220.195 314.161 226.412 319.536 227.821 319.396Z" fill="black"/>
<path d="M250.883 140.793C250.883 140.793 250.462 137.19 250.249 135.698C250.035 134.214 250.883 126.58 255.013 123.501C259.143 120.422 266.348 120.105 270.692 122.231C275.036 124.35 278.952 126.794 279.8 128.278C280.648 129.762 281.069 132.523 280.752 133.373C280.434 134.222 279.903 134.222 279.903 134.222L275.456 130.508C275.456 130.508 272.174 133.904 272.064 134.753C271.961 135.602 270.899 140.372 270.899 140.372C270.899 140.372 268.885 140.269 268.885 139.951C268.885 139.634 266.872 134.015 265.389 134.222C263.907 134.436 261.931 134.007 261.046 137.404C260.795 138.378 260.301 140.8 260.301 140.8L253.73 143.451L250.883 140.793Z" fill="black"/>
<path d="M275.464 130.508C275.464 130.508 272.182 133.904 272.071 134.753C271.968 135.602 270.906 140.372 270.906 140.372C270.906 140.372 268.893 140.269 268.893 139.951C268.893 139.634 266.879 134.015 265.397 134.222C263.914 134.436 261.938 134.007 261.053 137.404C260.802 138.378 260.308 140.8 260.308 140.8L253.737 143.451L262.425 155.153L264.121 154.445C264.121 154.445 271.039 156.778 271.68 156.704C272.314 156.63 273.023 153.662 273.023 153.381C273.023 153.101 274.225 152.813 274.719 152.673C275.213 152.532 274.579 151.469 274.579 151.469L275.781 151.255L276.201 148.708C276.201 148.708 277.116 149.129 277.403 149.129C277.684 149.129 278.819 148.634 278.819 148.634L277.691 140.571L278.959 139.368L279.453 133.993L279.328 133.712L275.464 130.508Z" fill="url(#paint21_linear_2_0)"/>
<path d="M244.916 177.274C244.916 177.274 246.753 184.059 263.28 195.23C279.807 206.401 290.826 213.046 294.639 215.172C298.452 217.291 304.241 222.526 304.241 222.526C304.241 222.526 307.493 218.849 309.322 215.453C311.159 212.057 311.579 210.359 311.579 210.359C311.579 210.359 291.239 196.36 285.162 191.553C279.085 186.747 270.899 176.986 270.05 175.007C269.202 173.028 269.062 159.879 262.985 156.482C256.908 153.086 250.131 156.482 247.166 163.696C244.201 170.909 244.916 177.274 244.916 177.274Z" fill="url(#paint22_linear_2_0)"/>
<path d="M306.181 219.809L311.269 221.928C311.269 221.928 313.283 220.127 314.345 217.048C315.407 213.969 315.827 212.596 315.827 212.596L311.586 210.366C311.586 210.366 308.091 218.214 306.181 219.809Z" fill="black"/>
<path d="M315.827 213.445C315.827 213.445 323.032 212.596 324.832 212.596C326.631 212.596 330.127 213.659 333.202 215.032C336.278 216.405 338.608 218.532 338.608 219.064C338.608 219.595 338.077 220.444 336.381 220.127C334.685 219.809 327.797 218.325 326.631 218.429C325.466 218.532 319.854 221.507 318.047 221.507C316.24 221.507 312.958 220.237 312.958 220.237C312.958 220.237 315.827 215.032 315.827 213.445Z" fill="url(#paint23_linear_2_0)"/>
<path d="M310.318 115.128C310.318 115.128 313.71 113.504 315.547 112.515C317.383 111.525 321.476 109.406 324.588 108.129C327.693 106.859 331.794 104.592 332.214 105.722C332.635 106.852 324.161 111.806 324.161 111.806C324.161 111.806 326.985 115.202 326.985 115.763C326.985 116.332 324.021 121.279 324.021 121.279C324.021 121.279 321.698 122.12 320.916 121.987C320.134 121.855 318.231 120.289 318.231 120.289L313.991 121.559C313.991 121.559 311.727 116.324 310.318 115.128Z" fill="url(#paint24_linear_2_0)"/>
<path d="M173.062 91.8634C173.868 91.8634 174.522 91.2089 174.522 90.4015C174.522 89.5942 173.868 88.9396 173.062 88.9396C172.255 88.9396 171.601 89.5942 171.601 90.4015C171.601 91.2089 172.255 91.8634 173.062 91.8634Z" fill="white"/>
<path d="M226.051 134.244C226.051 134.642 225.727 134.967 225.328 134.967C224.93 134.967 224.606 134.642 224.606 134.244C224.606 133.845 224.93 133.52 225.328 133.52C225.727 133.52 226.051 133.845 226.051 134.244Z" fill="white"/>
<path d="M140.228 146.589C140.228 147.681 139.343 148.56 138.259 148.56C137.168 148.56 136.29 147.674 136.29 146.589C136.29 145.496 137.175 144.617 138.259 144.617C139.343 144.617 140.228 145.503 140.228 146.589Z" fill="white"/>
<path d="M87.2684 137.411C87.2684 138.253 86.5899 138.932 85.7565 138.932C84.9157 138.932 84.2373 138.253 84.2373 137.411C84.2373 136.57 84.9157 135.89 85.7565 135.89C86.5899 135.898 87.2684 136.577 87.2684 137.411Z" fill="white"/>
<path d="M219.657 94.2704C219.657 95.0309 219.037 95.6511 218.278 95.6511C217.518 95.6511 216.899 95.0309 216.899 94.2704C216.899 93.5099 217.518 92.8897 218.278 92.8897C219.045 92.8897 219.657 93.5099 219.657 94.2704Z" fill="white"/>
<path d="M482.31 80.8918C483.308 80.8918 484.117 80.0819 484.117 79.0829C484.117 78.0839 483.308 77.274 482.31 77.274C481.312 77.274 480.503 78.0839 480.503 79.0829C480.503 80.0819 481.312 80.8918 482.31 80.8918Z" fill="white"/>
<path d="M547.948 133.395C547.948 133.889 547.55 134.288 547.055 134.288C546.561 134.288 546.163 133.889 546.163 133.395C546.163 132.9 546.561 132.501 547.055 132.501C547.55 132.501 547.948 132.9 547.948 133.395Z" fill="white"/>
<path d="M441.63 148.686C441.63 150.037 440.538 151.129 439.189 151.129C437.839 151.129 436.747 150.037 436.747 148.686C436.747 147.334 437.839 146.242 439.189 146.242C440.538 146.242 441.63 147.334 441.63 148.686Z" fill="white"/>
<path d="M376.029 137.315C376.029 138.356 375.188 139.198 374.149 139.198C373.109 139.198 372.268 138.356 372.268 137.315C372.268 136.274 373.109 135.432 374.149 135.432C375.188 135.44 376.029 136.282 376.029 137.315Z" fill="white"/>
<path d="M540.034 83.8747C540.034 84.8198 539.267 85.5876 538.323 85.5876C537.379 85.5876 536.612 84.8198 536.612 83.8747C536.612 82.9296 537.379 82.1618 538.323 82.1618C539.267 82.1618 540.034 82.9296 540.034 83.8747Z" fill="white"/>
<path d="M403.361 298.516C404.359 298.516 405.168 297.706 405.168 296.707C405.168 295.708 404.359 294.898 403.361 294.898C402.363 294.898 401.554 295.708 401.554 296.707C401.554 297.706 402.363 298.516 403.361 298.516Z" fill="white"/>
<path d="M469.006 351.018C469.006 351.513 468.607 351.912 468.113 351.912C467.619 351.912 467.221 351.513 467.221 351.018C467.221 350.524 467.619 350.125 468.113 350.125C468.607 350.118 469.006 350.524 469.006 351.018Z" fill="white"/>
<path d="M362.688 366.309C362.688 367.66 361.596 368.753 360.247 368.753C358.897 368.753 357.806 367.66 357.806 366.309C357.806 364.958 358.897 363.865 360.247 363.865C361.596 363.865 362.688 364.958 362.688 366.309Z" fill="white"/>
<path d="M297.087 354.939C297.087 355.98 296.246 356.822 295.206 356.822C294.167 356.822 293.326 355.98 293.326 354.939C293.326 353.898 294.167 353.056 295.206 353.056C296.246 353.056 297.087 353.898 297.087 354.939Z" fill="white"/>
<path d="M461.092 301.498C461.092 302.443 460.325 303.211 459.381 303.211C458.437 303.211 457.67 302.443 457.67 301.498C457.67 300.553 458.437 299.785 459.381 299.785C460.325 299.785 461.092 300.553 461.092 301.498Z" fill="white"/>
<path d="M329.611 381.438C330.153 381.438 330.592 380.998 330.592 380.456C330.592 379.913 330.153 379.474 329.611 379.474C329.069 379.474 328.63 379.913 328.63 380.456C328.63 380.998 329.069 381.438 329.611 381.438Z" fill="white"/>
<path d="M365.299 409.989C365.299 410.255 365.085 410.476 364.812 410.476C364.546 410.476 364.325 410.262 364.325 409.989C364.325 409.716 364.539 409.502 364.812 409.502C365.085 409.502 365.299 409.716 365.299 409.989Z" fill="white"/>
<path d="M307.493 418.303C307.493 419.041 306.896 419.632 306.166 419.632C305.428 419.632 304.838 419.034 304.838 418.303C304.838 417.564 305.436 416.974 306.166 416.974C306.896 416.974 307.493 417.564 307.493 418.303Z" fill="white"/>
<path d="M271.82 412.115C271.82 412.677 271.363 413.134 270.803 413.134C270.242 413.134 269.785 412.677 269.785 412.115C269.785 411.554 270.242 411.097 270.803 411.097C271.363 411.097 271.82 411.554 271.82 412.115Z" fill="white"/>
<path d="M360.999 383.062C360.999 383.579 360.586 383.992 360.07 383.992C359.553 383.992 359.14 383.579 359.14 383.062C359.14 382.545 359.553 382.132 360.07 382.132C360.579 382.132 360.999 382.545 360.999 383.062Z" fill="white"/>
<path d="M120.456 219.854C120.998 219.854 121.437 219.414 121.437 218.872C121.437 218.329 120.998 217.89 120.456 217.89C119.914 217.89 119.475 218.329 119.475 218.872C119.475 219.414 119.914 219.854 120.456 219.854Z" fill="white"/>
<path d="M156.151 248.405C156.151 248.671 155.937 248.892 155.664 248.892C155.399 248.892 155.177 248.678 155.177 248.405C155.177 248.139 155.391 247.918 155.664 247.918C155.93 247.918 156.151 248.139 156.151 248.405Z" fill="white"/>
<path d="M98.3383 256.719C98.3383 257.457 97.7409 258.047 97.0108 258.047C96.2733 258.047 95.6833 257.449 95.6833 256.719C95.6833 255.98 96.2806 255.389 97.0108 255.389C97.7483 255.389 98.3383 255.988 98.3383 256.719Z" fill="white"/>
<path d="M62.6728 250.539C62.6728 251.1 62.2155 251.558 61.655 251.558C61.0945 251.558 60.6373 251.1 60.6373 250.539C60.6373 249.977 61.0945 249.52 61.655 249.52C62.2155 249.52 62.6728 249.97 62.6728 250.539Z" fill="white"/>
<path d="M151.844 221.478C151.844 221.995 151.431 222.408 150.915 222.408C150.398 222.408 149.985 221.995 149.985 221.478C149.985 220.961 150.398 220.548 150.915 220.548C151.431 220.548 151.844 220.968 151.844 221.478Z" fill="white"/>
<path d="M491.809 197.283C492.351 197.283 492.79 196.843 492.79 196.301C492.79 195.758 492.351 195.319 491.809 195.319C491.267 195.319 490.828 195.758 490.828 196.301C490.828 196.843 491.267 197.283 491.809 197.283Z" fill="white"/>
<path d="M527.504 225.834C527.504 226.1 527.29 226.321 527.017 226.321C526.745 226.321 526.531 226.107 526.531 225.834C526.531 225.568 526.745 225.347 527.017 225.347C527.29 225.347 527.504 225.561 527.504 225.834Z" fill="white"/>
<path d="M469.692 234.148C469.692 234.886 469.094 235.477 468.364 235.477C467.627 235.477 467.037 234.879 467.037 234.148C467.037 233.409 467.634 232.819 468.364 232.819C469.102 232.819 469.692 233.417 469.692 234.148Z" fill="white"/>
<path d="M434.026 227.968C434.026 228.529 433.569 228.987 433.008 228.987C432.448 228.987 431.991 228.529 431.991 227.968C431.991 227.407 432.448 226.949 433.008 226.949C433.569 226.942 434.026 227.399 434.026 227.968Z" fill="white"/>
<path d="M523.197 198.907C523.197 199.424 522.784 199.837 522.268 199.837C521.752 199.837 521.339 199.424 521.339 198.907C521.339 198.39 521.752 197.977 522.268 197.977C522.784 197.977 523.197 198.398 523.197 198.907Z" fill="white"/>
<path d="M384.341 132.169C384.882 132.169 385.322 131.729 385.322 131.187C385.322 130.645 384.882 130.205 384.341 130.205C383.799 130.205 383.36 130.645 383.36 131.187C383.36 131.729 383.799 132.169 384.341 132.169Z" fill="white"/>
<path d="M420.036 160.72C420.036 160.986 419.822 161.208 419.549 161.208C419.276 161.208 419.062 160.994 419.062 160.72C419.062 160.455 419.276 160.233 419.549 160.233C419.822 160.233 420.036 160.447 420.036 160.72Z" fill="white"/>
<path d="M362.223 169.034C362.223 169.772 361.626 170.363 360.896 170.363C360.158 170.363 359.568 169.765 359.568 169.034C359.568 168.296 360.166 167.705 360.896 167.705C361.633 167.705 362.223 168.303 362.223 169.034Z" fill="white"/>
<path d="M326.558 162.854C326.558 163.415 326.1 163.873 325.54 163.873C324.979 163.873 324.522 163.415 324.522 162.854C324.522 162.293 324.979 161.835 325.54 161.835C326.1 161.828 326.558 162.286 326.558 162.854Z" fill="white"/>
<path d="M415.729 133.793C415.729 134.31 415.316 134.724 414.8 134.724C414.283 134.724 413.87 134.31 413.87 133.793C413.87 133.277 414.283 132.863 414.8 132.863C415.316 132.863 415.729 133.277 415.729 133.793Z" fill="white"/>
<path opacity="0.6" d="M473.357 55.2716C476.182 55.2716 478.822 56.0469 481.086 57.398C481.624 49.5126 488.181 43.2885 496.19 43.2885C498.144 43.2885 500.01 43.665 501.721 44.3369C503.904 37.0274 510.667 31.6967 518.676 31.6967C528.456 31.6967 536.376 39.6337 536.376 49.4167C536.376 49.6677 536.369 49.9187 536.354 50.1624C536.362 50.1624 536.369 50.1624 536.376 50.1624C546.148 50.1624 554.076 58.0995 554.076 67.8824C554.076 77.6727 546.148 85.6024 536.376 85.6024C535.764 85.6024 535.16 85.5728 534.57 85.5138H475.002C474.456 85.5728 473.91 85.6024 473.35 85.6024C464.986 85.6024 458.201 78.8097 458.201 70.437C458.209 62.0643 464.994 55.2716 473.357 55.2716Z" fill="url(#paint25_linear_2_0)"/>
<path opacity="0.3" d="M398.051 75.3469C396.436 75.3469 394.916 75.7899 393.626 76.5652C393.316 72.0466 389.562 68.4804 384.975 68.4804C383.987 68.4804 383.035 68.6576 382.15 68.9677C380.874 64.833 377.017 61.8206 372.467 61.8206C372.128 61.8206 371.789 61.8428 371.457 61.8723C367.201 62.1381 363.661 65.025 362.43 68.9456C361.537 68.6355 360.586 68.4583 359.59 68.4583C355.003 68.4583 351.249 72.0244 350.939 76.543C349.641 75.7678 348.13 75.3248 346.514 75.3248C341.721 75.3248 337.841 79.2158 337.841 84.0076C337.841 88.8067 341.728 92.6904 346.514 92.6904C346.832 92.6904 347.149 92.6682 347.458 92.6387H360.778C361.169 92.683 361.559 92.7125 361.965 92.7125C362.312 92.7125 362.658 92.6978 362.998 92.6608H382.018C382.209 92.6682 382.401 92.6904 382.6 92.6904C382.799 92.6904 382.991 92.6682 383.183 92.6608H397.107C397.417 92.6978 397.734 92.7125 398.051 92.7125C402.845 92.7125 406.724 88.8215 406.724 84.0297C406.724 79.2379 402.837 75.3469 398.051 75.3469Z" fill="url(#paint26_linear_2_0)"/>
<defs>
<radialGradient id="paint0_radial_2_0" cx="0" cy="0" r="1" gradientUnits="userSpaceOnUse" gradientTransform="translate(340.755 205.522) scale(152.401 152.573)">
<stop stop-color="#3E82BF"/>
<stop offset="1" stop-color="#3E82BF" stop-opacity="0"/>
</radialGradient>
<linearGradient id="paint1_linear_2_0" x1="437.899" y1="37.3559" x2="423.301" y2="109.86" gradientUnits="userSpaceOnUse">
<stop stop-color="#4D4D4D"/>
<stop offset="0.2928" stop-color="#898989"/>
<stop offset="0.6276" stop-color="#C8C8C8"/>
<stop offset="0.8728" stop-color="#F0F0F0"/>
<stop offset="1" stop-color="white"/>
</linearGradient>
<linearGradient id="paint2_linear_2_0" x1="437.899" y1="37.3559" x2="423.301" y2="109.86" gradientUnits="userSpaceOnUse">
<stop stop-color="#88CFDA"/>
<stop offset="0.00834131" stop-color="#89CFD9"/>
<stop offset="0.4784" stop-color="#C8D9BB"/>
<stop offset="0.8218" stop-color="#F0DFA7"/>
<stop offset="1" stop-color="#FFE1A0"/>
</linearGradient>
<linearGradient id="paint3_linear_2_0" x1="508.004" y1="139.181" x2="228.128" y2="308.188" gradientUnits="userSpaceOnUse">
<stop stop-color="#1DACFF"/>
<stop offset="0.1355" stop-color="#1CA9FB"/>
<stop offset="0.2739" stop-color="#1B9FEF"/>
<stop offset="0.4138" stop-color="#188EDA"/>
<stop offset="0.5546" stop-color="#1476BD"/>
<stop offset="0.6962" stop-color="#0F5898"/>
<stop offset="0.8385" stop-color="#08326B"/>
<stop offset="0.9788" stop-color="#010737"/>
<stop offset="1" stop-color="#00002E"/>
</linearGradient>
<linearGradient id="paint4_linear_2_0" x1="478.45" y1="141.26" x2="318.159" y2="237.835" gradientUnits="userSpaceOnUse">
<stop stop-color="#1DACFF"/>
<stop offset="0.1355" stop-color="#1CA9FB"/>
<stop offset="0.2739" stop-color="#1B9FEF"/>
<stop offset="0.4138" stop-color="#188EDA"/>
<stop offset="0.5546" stop-color="#1476BD"/>
<stop offset="0.6962" stop-color="#0F5898"/>
<stop offset="0.8385" stop-color="#08326B"/>
<stop offset="0.9788" stop-color="#010737"/>
<stop offset="1" stop-color="#00002E"/>
</linearGradient>
<linearGradient id="paint5_linear_2_0" x1="7.79235" y1="377.613" x2="158.042" y2="377.613" gradientUnits="userSpaceOnUse">
<stop stop-color="#88AEDA"/>
<stop offset="0.0417" stop-color="#8EADD4"/>
<stop offset="0.496" stop-color="#CBA895"/>
<stop offset="0.8277" stop-color="#F1A56D"/>
<stop offset="1" stop-color="#FFA45E"/>
</linearGradient>
<linearGradient id="paint6_linear_2_0" x1="42.1362" y1="371.715" x2="155.053" y2="371.715" gradientUnits="userSpaceOnUse">
<stop stop-color="#88CFDA"/>
<stop offset="0.0417" stop-color="#8ED0D4"/>
<stop offset="0.496" stop-color="#CBD995"/>
<stop offset="0.8277" stop-color="#F1DF6D"/>
<stop offset="1" stop-color="#FFE15E"/>
</linearGradient>
<linearGradient id="paint7_linear_2_0" x1="269.576" y1="335.065" x2="134.213" y2="158.936" gradientUnits="userSpaceOnUse">
<stop stop-color="#A1BAFF"/>
<stop offset="0.4885" stop-color="white"/>
</linearGradient>
<linearGradient id="paint8_linear_2_0" x1="352.257" y1="261.636" x2="326.147" y2="219.082" gradientUnits="userSpaceOnUse">
<stop stop-color="#3D00BA"/>
<stop offset="0.7452" stop-color="#CE00FF"/>
</linearGradient>
<linearGradient id="paint9_linear_2_0" x1="165.602" y1="379.212" x2="251.837" y2="379.212" gradientUnits="userSpaceOnUse">
<stop stop-color="#3D00BA"/>
<stop offset="0.7452" stop-color="#CE00FF"/>
</linearGradient>
<linearGradient id="paint10_linear_2_0" x1="185.211" y1="296.914" x2="133.497" y2="276.591" gradientUnits="userSpaceOnUse">
<stop stop-color="#3D00BA"/>
<stop offset="0.7452" stop-color="#CE00FF"/>
</linearGradient>
<linearGradient id="paint11_linear_2_0" x1="176.996" y1="372.873" x2="141.346" y2="318.823" gradientUnits="userSpaceOnUse">
<stop stop-color="#270036"/>
<stop offset="0.4379" stop-color="#4F008B"/>
<stop offset="1" stop-color="#4C24B1"/>
</linearGradient>
<linearGradient id="paint12_linear_2_0" x1="135.19" y1="328.509" x2="160.657" y2="373.026" gradientUnits="userSpaceOnUse">
<stop stop-color="#7633FF"/>
<stop offset="0.1585" stop-color="#7137FF"/>
<stop offset="0.3535" stop-color="#6243FF"/>
<stop offset="0.5676" stop-color="#4957FF"/>
<stop offset="0.7937" stop-color="#2672FF"/>
<stop offset="1" stop-color="#0090FF"/>
</linearGradient>
<linearGradient id="paint13_linear_2_0" x1="228.182" y1="293.359" x2="117.532" y2="352.433" gradientUnits="userSpaceOnUse">
<stop stop-color="#7633FF"/>
<stop offset="0.1316" stop-color="#6342FF"/>
<stop offset="0.5337" stop-color="#2E6CFF"/>
<stop offset="0.8353" stop-color="#0D86FF"/>
<stop offset="1" stop-color="#0090FF"/>
</linearGradient>
<linearGradient id="paint14_linear_2_0" x1="114.54" y1="329.577" x2="221.538" y2="329.577" gradientUnits="userSpaceOnUse">
<stop stop-color="#3D00BA"/>
<stop offset="0.7452" stop-color="#CE00FF"/>
</linearGradient>
<linearGradient id="paint15_linear_2_0" x1="244.421" y1="137.822" x2="310.617" y2="137.822" gradientUnits="userSpaceOnUse">
<stop stop-color="#7633FF"/>
<stop offset="0.1585" stop-color="#7137FF"/>
<stop offset="0.3535" stop-color="#6243FF"/>
<stop offset="0.5676" stop-color="#4957FF"/>
<stop offset="0.7937" stop-color="#2672FF"/>
<stop offset="1" stop-color="#0090FF"/>
</linearGradient>
<linearGradient id="paint16_linear_2_0" x1="234.996" y1="243.729" x2="268.117" y2="135.994" gradientUnits="userSpaceOnUse">
<stop stop-color="#7633FF"/>
<stop offset="0.1106" stop-color="#6640FF"/>
<stop offset="0.5243" stop-color="#2F6BFF"/>
<stop offset="0.8331" stop-color="#0D86FF"/>
<stop offset="1" stop-color="#0090FF"/>
</linearGradient>
<linearGradient id="paint17_linear_2_0" x1="244.853" y1="188.884" x2="265.114" y2="188.884" gradientUnits="userSpaceOnUse">
<stop stop-color="#5B3572"/>
<stop offset="1"/>
</linearGradient>
<linearGradient id="paint18_linear_2_0" x1="241.361" y1="146.407" x2="260.729" y2="146.407" gradientUnits="userSpaceOnUse">
<stop stop-color="#7633FF"/>
<stop offset="0.1585" stop-color="#7137FF"/>
<stop offset="0.3535" stop-color="#6243FF"/>
<stop offset="0.5676" stop-color="#4957FF"/>
<stop offset="0.7937" stop-color="#2672FF"/>
<stop offset="1" stop-color="#0090FF"/>
</linearGradient>
<linearGradient id="paint19_linear_2_0" x1="243.362" y1="208.387" x2="262.431" y2="208.387" gradientUnits="userSpaceOnUse">
<stop stop-color="#7700BB"/>
<stop offset="1"/>
</linearGradient>
<linearGradient id="paint20_linear_2_0" x1="207.342" y1="299.104" x2="231.073" y2="299.104" gradientUnits="userSpaceOnUse">
<stop stop-color="#270036"/>
<stop offset="0.5936" stop-color="#4F008B"/>
<stop offset="1" stop-color="#4C24B1"/>
</linearGradient>
<linearGradient id="paint21_linear_2_0" x1="253.744" y1="143.603" x2="279.452" y2="143.603" gradientUnits="userSpaceOnUse">
<stop stop-color="#A1BAFF"/>
<stop offset="0.4885" stop-color="white"/>
</linearGradient>
<linearGradient id="paint22_linear_2_0" x1="244.842" y1="188.847" x2="311.586" y2="188.847" gradientUnits="userSpaceOnUse">
<stop stop-color="#7633FF"/>
<stop offset="0.1585" stop-color="#7137FF"/>
<stop offset="0.3535" stop-color="#6243FF"/>
<stop offset="0.5676" stop-color="#4957FF"/>
<stop offset="0.7937" stop-color="#2672FF"/>
<stop offset="1" stop-color="#0090FF"/>
</linearGradient>
<linearGradient id="paint23_linear_2_0" x1="312.963" y1="217.048" x2="338.601" y2="217.048" gradientUnits="userSpaceOnUse">
<stop stop-color="#A1BAFF"/>
<stop offset="0.4885" stop-color="white"/>
</linearGradient>
<linearGradient id="paint24_linear_2_0" x1="310.315" y1="113.707" x2="332.225" y2="113.707" gradientUnits="userSpaceOnUse">
<stop stop-color="#A1BAFF"/>
<stop offset="0.4885" stop-color="white"/>
</linearGradient>
<linearGradient id="paint25_linear_2_0" x1="458.21" y1="58.6488" x2="554.087" y2="58.6488" gradientUnits="userSpaceOnUse">
<stop stop-color="#A1BAFF"/>
<stop offset="0.0888" stop-color="#ACC2FF"/>
<stop offset="0.4988" stop-color="#D9E3FF"/>
<stop offset="0.816" stop-color="#F5F7FF"/>
<stop offset="1" stop-color="white"/>
</linearGradient>
<linearGradient id="paint26_linear_2_0" x1="337.828" y1="77.2698" x2="406.724" y2="77.2698" gradientUnits="userSpaceOnUse">
<stop stop-color="#A1BAFF"/>
<stop offset="0.0888" stop-color="#ACC2FF"/>
<stop offset="0.4988" stop-color="#D9E3FF"/>
<stop offset="0.816" stop-color="#F5F7FF"/>
<stop offset="1" stop-color="white"/>
</linearGradient>
</defs>
</svg>
