<svg width="463" height="321" viewBox="0 0 463 321" fill="none" xmlns="http://www.w3.org/2000/svg">
<path d="M223.425 165.946L462.138 45.6421L250.845 221.816" fill="url(#paint0_linear_2_21)"/>
<path d="M353.114 116.832L462.138 45.6421L330.657 112.166L353.114 116.832Z" fill="url(#paint1_linear_2_21)"/>
<path d="M128.257 293.641C117.165 301.895 90.9179 309.463 90.9179 309.463C90.9179 309.463 93.0198 308.26 96.4713 306.554C99.9228 304.841 102.784 301.224 102.784 301.224C102.784 301.224 95.7337 305.528 85.9324 308.843C76.1384 312.158 63.033 314.565 63.033 314.565C63.033 314.565 65.6954 313.273 70.3637 310.217C75.0395 307.16 83.0709 301.836 83.0709 301.836C83.0709 301.836 63.0256 312.83 32.3825 314.942C20.3908 315.769 0.780624 320.066 0.780624 320.066C0.780624 320.066 10.2575 311.885 14.7636 307.167C21.9247 299.68 30.2511 287.638 36.778 280.033C46.4983 268.707 66.455 248.787 66.455 248.787C66.455 248.787 66.455 248.787 62.443 250.589C58.431 252.39 53.5782 254.325 53.5782 254.325C53.5782 254.325 73.6456 235.172 88.58 229.399C105.41 222.894 127.867 225.862 127.867 225.862C127.867 225.862 129.843 235.475 137.189 247.923C144.785 260.785 151.031 266.027 151.031 266.027C151.031 266.027 145.249 281.001 128.257 293.641Z" fill="url(#paint2_linear_2_21)"/>
<path d="M130.935 282.522C122.601 288.724 102.873 294.416 102.873 294.416C102.873 294.416 104.451 293.515 107.047 292.231C109.643 290.946 111.789 288.222 111.789 288.222C111.789 288.222 106.486 291.455 99.1262 293.944C91.766 296.432 81.9204 298.248 81.9204 298.248C81.9204 298.248 83.919 297.274 87.4295 294.977C90.94 292.681 96.9801 288.679 96.9801 288.679C96.9801 288.679 81.913 296.941 58.8809 298.529C49.8686 299.149 35.1334 302.375 35.1334 302.375C35.1334 302.375 42.2576 296.225 45.6427 292.681C51.0265 287.055 57.2805 278.01 62.1922 272.288C69.5009 263.775 84.4942 248.809 84.4942 248.809C84.4942 248.809 84.4942 248.809 81.4779 250.16C78.4615 251.512 74.8109 252.966 74.8109 252.966C74.8109 252.966 89.8927 238.576 101.118 234.235C113.766 229.347 130.647 231.577 130.647 231.577C130.647 231.577 132.129 238.805 137.653 248.152C143.361 257.824 148.059 261.752 148.059 261.752C148.059 261.752 143.701 273.019 130.935 282.522Z" fill="url(#paint3_linear_2_21)"/>
<path d="M143.561 204.214C144.829 202.302 180.214 164.337 223.225 142.061C266.236 119.786 285.729 117.881 285.729 117.881C285.729 117.881 296.533 125.515 307.337 145.457C318.142 165.4 321.32 173.455 320.472 176.002C319.624 178.55 277.675 223.942 231.692 242.821C185.716 261.701 180.421 262.764 180.421 262.764C180.421 262.764 174.698 262.129 168.134 252.161C161.57 242.194 146.312 217.371 144.615 211.856C142.919 206.34 143.561 204.214 143.561 204.214Z" fill="url(#paint4_linear_2_21)"/>
<path d="M355.223 115.548C352.679 111.944 349.294 111.302 328.74 111.516C308.185 111.73 286.791 118.516 286.791 118.516L287.034 118.914C290.22 121.58 298.775 129.65 307.345 145.457C315.479 160.468 319.285 168.744 320.317 173.005L321.121 174.304C321.121 174.304 321.121 174.304 324.72 170.908C328.319 167.511 343.15 145.664 348.659 135.483C354.169 125.308 357.768 119.151 355.223 115.548Z" fill="url(#paint5_linear_2_21)"/>
<path d="M182.125 262.121L158.606 311.76C158.606 311.76 181.697 302.213 208.608 284.397C235.52 266.581 237.636 263.82 237.636 263.82L244.842 236.671C244.834 236.671 201.617 256.606 182.125 262.121Z" fill="url(#paint6_linear_2_21)"/>
<path d="M196.314 158.607L171.527 153.52C171.527 153.52 149.704 162.638 131.48 174.518C113.257 186.398 95.4609 199.762 95.4609 199.762L145.249 202.309C145.257 202.302 180.428 166.242 196.314 158.607Z" fill="url(#paint7_linear_2_21)"/>
<path d="M168.134 252.154C161.563 242.187 146.312 217.364 144.615 211.848C144.151 210.35 143.87 209.109 143.693 208.083L130.846 217.57C130.846 217.57 129.998 226.903 141.437 244.298C152.875 261.693 158.812 267.629 161.563 267.415C164.314 267.201 176.18 261.051 176.18 261.051L175.937 260.652C173.791 259.153 171.047 256.569 168.134 252.154Z" fill="url(#paint8_linear_2_21)"/>
<path d="M131.694 223.093L127.881 225.847C127.881 225.847 127.461 231.783 136.141 246.21C144.829 260.637 150.124 265.939 152.455 266.153C154.785 266.367 156.482 264.241 156.482 264.241C156.482 264.241 136.141 241.544 131.694 223.093Z" fill="url(#paint9_linear_2_21)"/>
<path d="M211.787 191.699L192.715 198.278C192.715 198.278 163.149 214.698 153.517 220.553C141.437 227.892 106.059 251.312 106.059 251.312L107.541 254.495L195.259 202.102L214.538 194.675L211.787 191.699Z" fill="url(#paint10_linear_2_21)"/>
<path d="M107.541 254.487L155.847 232.212C155.847 232.212 174.403 221.594 180.428 217.785C189.138 212.284 214.538 194.667 214.538 194.667L194.411 202.302L107.541 254.487Z" fill="url(#paint11_linear_2_21)"/>
<path d="M298.657 12.0332L303.318 10.1209C303.318 10.1209 304.491 10.6599 305.648 13.3031C307.131 16.6995 307.345 19.0326 307.345 19.0326L302.684 21.5799C302.676 21.5799 300.346 15.2154 298.657 12.0332Z" fill="black"/>
<path d="M255.852 54.037L303.524 25.1903C303.524 25.1903 304.092 20.6643 302.396 16.7069C300.7 12.7494 298.723 11.6124 298.723 11.6124L237.422 39.4032" fill="url(#paint12_linear_2_21)"/>
<path d="M234.31 39.2556C234.31 39.2556 225.128 49.3634 223.012 60.3941C220.895 71.4248 221.101 89.8757 220.467 96.0334C219.833 102.184 216.654 113.643 214.744 118.944C212.834 124.245 212.2 131.673 212.2 131.673C212.2 131.673 225.549 133.157 240.38 131.459C255.211 129.76 260.506 127.856 260.506 127.856C260.506 127.856 259.658 110.46 258.102 104.805C256.546 99.1492 256.125 97.1704 256.125 97.1704C256.125 97.1704 256.693 95.0514 258.102 91.2342C259.518 87.4171 266.576 73.8391 265.447 68.6117C264.319 63.3769 261.494 55.7425 259.09 53.1953C256.686 50.6481 255.698 50.2272 255.698 50.2272C255.698 50.2272 250.188 42.3049 246.376 38.628C242.563 34.9511 237.902 35.3719 237.902 35.3719L234.31 39.2556Z" fill="url(#paint13_linear_2_21)"/>
<path opacity="0.5" d="M237.85 72.9974C237.85 72.9974 240.321 80.2109 244.421 85.0174C248.514 89.824 256.922 94.7782 256.922 94.7782L258.117 91.2342L238.418 73.0048" fill="url(#paint14_linear_2_21)"/>
<path d="M253.728 47.4584C251.781 44.8152 248.758 40.902 246.39 38.6206C242.577 34.9437 237.916 35.3645 237.916 35.3645L234.362 39.2039C236.913 40.7691 243.212 41.9283 247.238 44.2762C249.687 45.7012 251.921 46.7349 253.728 47.4584Z" fill="url(#paint15_linear_2_21)"/>
<path d="M236.788 103.107C236.788 103.107 241.309 102.966 247.806 101.408C254.304 99.8506 255.432 98.8612 255.432 98.8612L254.016 104.657C254.016 104.657 250.764 106.916 246.103 107.345C241.442 107.766 236.353 107.913 236.353 107.913L236.788 103.107Z" fill="url(#paint16_linear_2_21)"/>
<path d="M216.448 131.953C216.448 131.953 217.716 138.739 222.097 141.286C226.478 143.833 230.711 145.812 230.711 145.812L250.771 161.088L218.992 173.957C218.992 173.957 223.085 183.57 226.478 188.384C229.87 193.191 232.267 195.457 232.267 195.029C232.267 194.601 252.327 185.268 263.058 181.171C273.796 177.073 279.157 174.666 281.141 170.568C283.118 166.47 278.884 161.804 276.901 158.127C274.924 154.45 261.502 135.505 259.105 132.817C256.708 130.13 254.724 129.281 254.724 129.281C254.724 129.281 232.688 133.511 216.448 131.953Z" fill="black"/>
<path d="M218.985 173.95L210.371 173.809L200.341 178.335L204.581 188.236L206.558 186.967C206.558 186.967 207.546 196.439 210.371 202.804C213.195 209.168 219.413 214.543 220.821 214.403C222.237 214.263 223.366 211.996 223.366 211.996C223.366 211.996 218.424 203.653 219.413 198.987C220.401 194.32 222.517 186.826 222.517 186.826L224.074 185.128C224.074 185.121 219.272 176.357 218.985 173.95Z" fill="url(#paint17_linear_2_21)"/>
<path d="M218.985 173.95L212.48 173.846C212.804 175.449 213.394 177.929 214.043 178.764C214.928 179.908 220.135 181.732 222.827 186.487L224.074 185.128C224.074 185.121 219.272 176.357 218.985 173.95Z" fill="white"/>
<path d="M220.821 214.396C221.205 214.359 221.566 214.159 221.89 213.901C219.184 212.122 216.337 208.799 213.616 205.203C209.663 199.969 209.375 189.226 208.815 186.959C208.343 185.076 205.429 178.594 204.463 176.467L200.341 178.328L204.581 188.229L206.558 186.959C206.558 186.959 207.546 196.432 210.371 202.796C213.195 209.161 219.412 214.536 220.821 214.396Z" fill="black"/>
<path d="M243.883 35.7928C243.883 35.7928 243.462 32.1897 243.249 30.6983C243.035 29.2142 243.883 21.5799 248.013 18.501C252.143 15.4222 259.348 15.1047 263.692 17.2311C268.036 19.3501 271.952 21.794 272.8 23.278C273.648 24.7621 274.069 27.5234 273.752 28.3725C273.434 29.2216 272.903 29.2216 272.903 29.2216L268.456 25.5078C268.456 25.5078 265.174 28.9041 265.064 29.7532C264.961 30.6023 263.899 35.3719 263.899 35.3719C263.899 35.3719 261.885 35.2686 261.885 34.9511C261.885 34.6336 259.872 29.0149 258.389 29.2216C256.907 29.4357 254.931 29.0075 254.046 32.4038C253.795 33.3784 253.301 35.8002 253.301 35.8002L246.73 38.4508L243.883 35.7928Z" fill="black"/>
<path d="M268.464 25.5078C268.464 25.5078 265.182 28.9041 265.071 29.7532C264.968 30.6023 263.906 35.3719 263.906 35.3719C263.906 35.3719 261.893 35.2686 261.893 34.9511C261.893 34.6336 259.879 29.0149 258.397 29.2216C256.914 29.4357 254.938 29.0075 254.053 32.4038C253.802 33.3784 253.308 35.8002 253.308 35.8002L246.737 38.4508L255.425 50.1534L257.121 49.4446C257.121 49.4446 264.039 51.7777 264.68 51.7039C265.314 51.63 266.023 48.6619 266.023 48.3814C266.023 48.1008 267.225 47.8129 267.719 47.6726C268.213 47.5323 267.579 46.4691 267.579 46.4691L268.781 46.255L269.201 43.7077C269.201 43.7077 270.116 44.1286 270.403 44.1286C270.684 44.1286 271.819 43.6339 271.819 43.6339L270.691 35.5713L271.959 34.3678L272.453 28.9927L272.328 28.7122L268.464 25.5078Z" fill="url(#paint18_linear_2_21)"/>
<path d="M237.916 72.2738C237.916 72.2738 239.753 79.0591 256.28 90.2301C272.807 101.401 283.826 108.046 287.639 110.172C291.452 112.291 297.241 117.526 297.241 117.526C297.241 117.526 300.493 113.849 302.322 110.453C304.159 107.057 304.579 105.359 304.579 105.359C304.579 105.359 284.239 91.3597 278.162 86.5532C272.085 81.7467 263.899 71.9859 263.05 70.0072C262.202 68.0284 262.062 54.8787 255.985 51.4824C249.908 48.086 243.131 51.4824 240.166 58.6959C237.201 65.9094 237.916 72.2738 237.916 72.2738Z" fill="url(#paint19_linear_2_21)"/>
<path d="M299.181 114.809L304.269 116.928C304.269 116.928 306.283 115.127 307.345 112.048C308.407 108.969 308.827 107.596 308.827 107.596L304.586 105.366C304.586 105.366 301.091 113.214 299.181 114.809Z" fill="black"/>
<path d="M308.827 108.445C308.827 108.445 316.032 107.596 317.832 107.596C319.631 107.596 323.127 108.659 326.202 110.032C329.278 111.405 331.608 113.532 331.608 114.064C331.608 114.595 331.077 115.444 329.381 115.127C327.685 114.809 320.797 113.325 319.631 113.429C318.466 113.532 312.854 116.507 311.047 116.507C309.24 116.507 305.958 115.237 305.958 115.237C305.958 115.237 308.827 110.032 308.827 108.445Z" fill="url(#paint20_linear_2_21)"/>
<path d="M303.318 10.1283C303.318 10.1283 306.71 8.50398 308.547 7.51461C310.383 6.52525 314.476 4.40623 317.588 3.12891C320.693 1.85898 324.794 -0.407697 325.214 0.721953C325.635 1.8516 317.161 6.80581 317.161 6.80581C317.161 6.80581 319.985 10.2021 319.985 10.7633C319.985 11.3318 317.021 16.2786 317.021 16.2786C317.021 16.2786 314.698 17.1203 313.916 16.9874C313.134 16.8545 311.231 15.2893 311.231 15.2893L306.991 16.5592C306.991 16.5592 304.727 11.3244 303.318 10.1283Z" fill="url(#paint21_linear_2_21)"/>
<defs>
<linearGradient id="paint0_linear_2_21" x1="501.004" y1="34.1815" x2="221.128" y2="203.188" gradientUnits="userSpaceOnUse">
<stop stop-color="#1DACFF"/>
<stop offset="0.1355" stop-color="#1CA9FB"/>
<stop offset="0.2739" stop-color="#1B9FEF"/>
<stop offset="0.4138" stop-color="#188EDA"/>
<stop offset="0.5546" stop-color="#1476BD"/>
<stop offset="0.6962" stop-color="#0F5898"/>
<stop offset="0.8385" stop-color="#08326B"/>
<stop offset="0.9788" stop-color="#010737"/>
<stop offset="1" stop-color="#00002E"/>
</linearGradient>
<linearGradient id="paint1_linear_2_21" x1="471.45" y1="36.2605" x2="311.159" y2="132.835" gradientUnits="userSpaceOnUse">
<stop stop-color="#1DACFF"/>
<stop offset="0.1355" stop-color="#1CA9FB"/>
<stop offset="0.2739" stop-color="#1B9FEF"/>
<stop offset="0.4138" stop-color="#188EDA"/>
<stop offset="0.5546" stop-color="#1476BD"/>
<stop offset="0.6962" stop-color="#0F5898"/>
<stop offset="0.8385" stop-color="#08326B"/>
<stop offset="0.9788" stop-color="#010737"/>
<stop offset="1" stop-color="#00002E"/>
</linearGradient>
<linearGradient id="paint2_linear_2_21" x1="0.792351" y1="272.613" x2="151.042" y2="272.613" gradientUnits="userSpaceOnUse">
<stop stop-color="#88AEDA"/>
<stop offset="0.0417" stop-color="#8EADD4"/>
<stop offset="0.496" stop-color="#CBA895"/>
<stop offset="0.8277" stop-color="#F1A56D"/>
<stop offset="1" stop-color="#FFA45E"/>
</linearGradient>
<linearGradient id="paint3_linear_2_21" x1="35.1362" y1="266.715" x2="148.053" y2="266.715" gradientUnits="userSpaceOnUse">
<stop stop-color="#88CFDA"/>
<stop offset="0.0417" stop-color="#8ED0D4"/>
<stop offset="0.496" stop-color="#CBD995"/>
<stop offset="0.8277" stop-color="#F1DF6D"/>
<stop offset="1" stop-color="#FFE15E"/>
</linearGradient>
<linearGradient id="paint4_linear_2_21" x1="262.576" y1="230.065" x2="127.213" y2="53.9364" gradientUnits="userSpaceOnUse">
<stop stop-color="#A1BAFF"/>
<stop offset="0.4885" stop-color="white"/>
</linearGradient>
<linearGradient id="paint5_linear_2_21" x1="345.257" y1="156.636" x2="319.147" y2="114.082" gradientUnits="userSpaceOnUse">
<stop stop-color="#3D00BA"/>
<stop offset="0.7452" stop-color="#CE00FF"/>
</linearGradient>
<linearGradient id="paint6_linear_2_21" x1="158.602" y1="274.212" x2="244.837" y2="274.212" gradientUnits="userSpaceOnUse">
<stop stop-color="#3D00BA"/>
<stop offset="0.7452" stop-color="#CE00FF"/>
</linearGradient>
<linearGradient id="paint7_linear_2_21" x1="178.211" y1="191.914" x2="126.497" y2="171.591" gradientUnits="userSpaceOnUse">
<stop stop-color="#3D00BA"/>
<stop offset="0.7452" stop-color="#CE00FF"/>
</linearGradient>
<linearGradient id="paint8_linear_2_21" x1="169.996" y1="267.873" x2="134.346" y2="213.823" gradientUnits="userSpaceOnUse">
<stop stop-color="#270036"/>
<stop offset="0.4379" stop-color="#4F008B"/>
<stop offset="1" stop-color="#4C24B1"/>
</linearGradient>
<linearGradient id="paint9_linear_2_21" x1="128.19" y1="223.509" x2="153.657" y2="268.026" gradientUnits="userSpaceOnUse">
<stop stop-color="#7633FF"/>
<stop offset="0.1585" stop-color="#7137FF"/>
<stop offset="0.3535" stop-color="#6243FF"/>
<stop offset="0.5676" stop-color="#4957FF"/>
<stop offset="0.7937" stop-color="#2672FF"/>
<stop offset="1" stop-color="#0090FF"/>
</linearGradient>
<linearGradient id="paint10_linear_2_21" x1="221.182" y1="188.359" x2="110.532" y2="247.433" gradientUnits="userSpaceOnUse">
<stop stop-color="#7633FF"/>
<stop offset="0.1316" stop-color="#6342FF"/>
<stop offset="0.5337" stop-color="#2E6CFF"/>
<stop offset="0.8353" stop-color="#0D86FF"/>
<stop offset="1" stop-color="#0090FF"/>
</linearGradient>
<linearGradient id="paint11_linear_2_21" x1="107.54" y1="224.577" x2="214.538" y2="224.577" gradientUnits="userSpaceOnUse">
<stop stop-color="#3D00BA"/>
<stop offset="0.7452" stop-color="#CE00FF"/>
</linearGradient>
<linearGradient id="paint12_linear_2_21" x1="237.421" y1="32.8224" x2="303.617" y2="32.8224" gradientUnits="userSpaceOnUse">
<stop stop-color="#7633FF"/>
<stop offset="0.1585" stop-color="#7137FF"/>
<stop offset="0.3535" stop-color="#6243FF"/>
<stop offset="0.5676" stop-color="#4957FF"/>
<stop offset="0.7937" stop-color="#2672FF"/>
<stop offset="1" stop-color="#0090FF"/>
</linearGradient>
<linearGradient id="paint13_linear_2_21" x1="227.996" y1="138.729" x2="261.117" y2="30.9942" gradientUnits="userSpaceOnUse">
<stop stop-color="#7633FF"/>
<stop offset="0.1106" stop-color="#6640FF"/>
<stop offset="0.5243" stop-color="#2F6BFF"/>
<stop offset="0.8331" stop-color="#0D86FF"/>
<stop offset="1" stop-color="#0090FF"/>
</linearGradient>
<linearGradient id="paint14_linear_2_21" x1="237.853" y1="83.884" x2="258.114" y2="83.884" gradientUnits="userSpaceOnUse">
<stop stop-color="#5B3572"/>
<stop offset="1"/>
</linearGradient>
<linearGradient id="paint15_linear_2_21" x1="234.361" y1="41.4073" x2="253.729" y2="41.4073" gradientUnits="userSpaceOnUse">
<stop stop-color="#7633FF"/>
<stop offset="0.1585" stop-color="#7137FF"/>
<stop offset="0.3535" stop-color="#6243FF"/>
<stop offset="0.5676" stop-color="#4957FF"/>
<stop offset="0.7937" stop-color="#2672FF"/>
<stop offset="1" stop-color="#0090FF"/>
</linearGradient>
<linearGradient id="paint16_linear_2_21" x1="236.362" y1="103.387" x2="255.431" y2="103.387" gradientUnits="userSpaceOnUse">
<stop stop-color="#7700BB"/>
<stop offset="1"/>
</linearGradient>
<linearGradient id="paint17_linear_2_21" x1="200.342" y1="194.104" x2="224.073" y2="194.104" gradientUnits="userSpaceOnUse">
<stop stop-color="#270036"/>
<stop offset="0.5936" stop-color="#4F008B"/>
<stop offset="1" stop-color="#4C24B1"/>
</linearGradient>
<linearGradient id="paint18_linear_2_21" x1="246.744" y1="38.6034" x2="272.452" y2="38.6034" gradientUnits="userSpaceOnUse">
<stop stop-color="#A1BAFF"/>
<stop offset="0.4885" stop-color="white"/>
</linearGradient>
<linearGradient id="paint19_linear_2_21" x1="237.842" y1="83.8466" x2="304.586" y2="83.8466" gradientUnits="userSpaceOnUse">
<stop stop-color="#7633FF"/>
<stop offset="0.1585" stop-color="#7137FF"/>
<stop offset="0.3535" stop-color="#6243FF"/>
<stop offset="0.5676" stop-color="#4957FF"/>
<stop offset="0.7937" stop-color="#2672FF"/>
<stop offset="1" stop-color="#0090FF"/>
</linearGradient>
<linearGradient id="paint20_linear_2_21" x1="305.963" y1="112.048" x2="331.601" y2="112.048" gradientUnits="userSpaceOnUse">
<stop stop-color="#A1BAFF"/>
<stop offset="0.4885" stop-color="white"/>
</linearGradient>
<linearGradient id="paint21_linear_2_21" x1="303.315" y1="8.7068" x2="325.225" y2="8.7068" gradientUnits="userSpaceOnUse">
<stop stop-color="#A1BAFF"/>
<stop offset="0.4885" stop-color="white"/>
</linearGradient>
</defs>
</svg>
